<svg width="120" height="46" viewBox="0 0 120 46" fill="none" xmlns="http://www.w3.org/2000/svg">
<path d="M26.8164 23.3266C26.7934 23.2922 26.7703 23.2578 26.7358 23.2233C25.3537 21.8458 23.9602 20.4567 22.5782 19.0792C22.3824 18.884 22.1751 18.6774 21.9793 18.4822C21.9562 18.4593 21.9217 18.4363 21.8987 18.4133C21.0234 17.5524 19.9984 16.8521 18.8697 16.347C16.6584 15.3712 14.2053 15.1646 11.8328 15.5893C6.69629 16.5192 2.30833 20.4797 0.672925 25.393C-0.0871937 27.6889 -0.236914 30.2144 0.396518 32.5563C0.868713 34.3012 1.79007 35.8969 3.04542 37.1826C3.06845 37.217 3.09148 37.24 3.11452 37.263C4.49655 38.6405 5.8901 40.0296 7.27214 41.4071C7.46792 41.6023 7.67523 41.8089 7.87102 42.0041C9.77131 43.8753 12.305 44.9314 14.9655 45.0921C17.7295 45.2643 20.5281 44.4607 22.8776 43.0028C27.7032 40.0066 30.8128 34.1405 29.592 28.4695C29.1543 26.5295 28.1869 24.7386 26.8164 23.3266ZM1.26029 27.3101C2.17013 22.6149 5.77493 18.5855 10.3241 17.0817C12.4202 16.3929 14.7006 16.2207 16.8542 16.7832C18.5012 17.208 20.0099 18.0575 21.2076 19.2514C21.4956 19.5383 21.7605 19.8368 22.0023 20.1582C22.0253 20.1812 22.0369 20.2042 22.0599 20.2271C22.106 20.2845 22.152 20.3534 22.1981 20.4223C22.2442 20.4797 22.2787 20.5371 22.3248 20.5945C22.3478 20.6289 22.3709 20.6748 22.3939 20.7093C22.4515 20.8011 22.5091 20.8815 22.5666 20.9733C22.5897 21.0077 22.6127 21.0422 22.6357 21.0881C22.6933 21.1799 22.7394 21.2718 22.797 21.3636C22.8661 21.5129 22.9352 21.685 23.0273 21.8343C23.0388 21.8917 23.0734 21.9606 23.1195 22.0065C24.8931 25.8981 23.8911 30.6048 21.3228 33.9798C20.9428 34.4849 20.5166 34.9556 20.0675 35.4033C16.693 38.7438 11.4643 40.4543 6.91511 38.5831C6.79994 38.5372 6.68477 38.4798 6.5696 38.4339C6.37381 38.2961 6.10892 38.2043 5.91314 38.101C5.90162 38.101 5.90162 38.0895 5.8901 38.0895C5.78645 38.0321 5.6828 37.9747 5.59066 37.9058C5.53308 37.8714 5.47549 37.837 5.42942 37.8025C5.38336 37.7681 5.33729 37.7451 5.29122 37.7107C3.80554 36.7119 2.61929 35.2999 1.89372 33.6583C1.01843 31.6609 0.845679 29.4109 1.26029 27.3101ZM28.0142 35.1966C26.206 40.1444 21.2883 43.9327 15.9559 44.0589C13.2379 44.1278 10.566 43.1865 8.61962 41.2694C8.21653 40.8676 7.84798 40.4314 7.52551 39.9607C7.51399 39.9377 7.49096 39.9148 7.47944 39.8918C11.4413 41.0972 15.9674 39.9951 19.2613 37.4811C19.8141 37.0678 20.3324 36.6201 20.8161 36.1265C24.2136 32.7055 26.0332 27.5167 24.5821 22.8445C26.3788 24.0613 27.7147 25.8522 28.3366 27.9529C29.0507 30.3292 28.8664 32.8892 28.0142 35.1966Z" fill="white"/>
<path d="M5.67127 35.5869C4.96873 29.3535 9.39124 23.3267 15.311 21.5129C16.8888 21.0307 18.5357 20.8585 20.1711 21.0307C20.5857 21.0766 20.5742 20.4338 20.1711 20.3879C13.6525 19.7106 7.37577 24.3713 5.51003 30.5244C5.0148 32.1545 4.83053 33.888 5.02632 35.5869C5.07239 35.9887 5.71733 36.0002 5.67127 35.5869Z" fill="#CCCCCC"/>
<path d="M42.0188 11.1123L38.9898 12.1225V14.5906L42.0188 14.1085V11.1123Z" fill="white"/>
<path d="M49.0671 35.7706L43.5966 36.5971C44.7137 34.8867 46.0267 31.5576 46.0497 25.3011V18.1493L43.0323 18.6085V25.1978C43.0323 31.879 42.7213 35.1736 42.4334 36.7693L32.9549 38.1928V40.2362L49.0787 37.8025V35.7706H49.0671Z" fill="white"/>
<path d="M34.9589 19.5958V24.1762C35.051 32.2579 37.3314 35.3114 38.4255 36.3102C38.5752 36.4479 38.8055 36.3102 38.7595 36.115C38.46 34.9785 37.9878 31.8905 37.9878 23.6711V19.1251L34.9589 19.5958Z" fill="white"/>
<path d="M47.0517 14.384L33.9454 16.393V18.4019L47.0517 16.393V14.384Z" fill="white"/>
<path d="M79.7483 5.05103L76.7308 5.51021V8.82784H76.7654H76.7424C76.6963 16.1748 76.2586 19.0218 75.9707 20.1009C75.9247 20.296 76.155 20.4338 76.3047 20.296C76.7193 19.9172 77.2952 19.2514 77.871 18.1264V20.2731L83.5258 19.3891V16.4159L78.2741 17.231C78.85 15.819 79.3682 13.8674 79.6216 11.2041L83.5374 10.5957V7.62247L79.7828 8.20794V5.05103H79.7483Z" fill="white"/>
<path d="M82.5008 22.6838V20.6633L72.4235 22.2246V22.2131L69.4061 22.7067V24.7271V32.6596L68.3811 32.8203V34.8292L83.5028 32.4874V30.4784L82.5008 30.6277V22.6838ZM79.4719 31.0869L79.1379 31.1443V23.2118L79.4719 23.1544V31.0869ZM76.1204 31.6035L75.7865 31.6608V23.7284L76.1204 23.671V31.6035ZM72.4235 24.245L72.7575 24.1876V32.12L72.4235 32.1774V24.245Z" fill="white"/>
<path d="M75.4525 7.72574V5.7168L68.3926 6.81885V7.59947V19.8368V21.7539L75.4525 20.6519V18.6429L74.2662 18.8266V17.0128L75.4525 16.8291V15.6812V13.6952V12.7538V10.2398V9.65433L74.2662 9.838V7.90942L75.4525 7.72574ZM72.2508 19.1365L71.41 19.2628V17.449L72.2508 17.3228V19.1365ZM73.9207 13.9362L71.41 14.3266V13.3852L73.9207 12.9949V13.9362ZM72.2508 10.148L71.41 10.2742V8.34564L72.2508 8.21937V10.148Z" fill="white"/>
<path d="M106.859 3.88012L109.877 3.42094V0.0114746H109.854L106.859 1.01021V3.88012Z" fill="white"/>
<path d="M118.238 10.3202L120 10.0562V7.03704L118.238 7.30107V0L115.22 1.01021V7.77174V10.7909V16.967L113.458 17.231V19.2629V25.7834V27.8153L116.476 27.3561L116.971 27.2872L119.989 26.828V24.7961V18.2756V16.2437L118.226 16.5078V10.3202H118.238ZM116.476 18.8037L116.971 18.7348V25.2553L116.476 25.3242V18.8037Z" fill="white"/>
<path d="M112.433 4.02942L104.878 5.18887V7.20929L112.433 6.04985V4.02942Z" fill="white"/>
<path d="M112.134 15.6468V15.0499V13.5575V7.14038L109.623 7.51921L109.612 14.5563C109.589 22.2247 109.116 25.1749 108.829 26.277C108.806 26.3688 108.852 26.4492 108.909 26.4951L104.867 27.1035V29.1354L112.422 27.999V25.967L109.174 26.4607C110.268 25.4505 112.03 23.4989 112.134 15.6468Z" fill="white"/>
<path d="M105.27 15.0384C105.362 22.9479 107.159 24.865 108.23 25.8637C108.379 26.0014 108.61 25.8637 108.564 25.6685C108.276 24.5665 107.804 21.5932 107.781 13.8215V13.3279L107.769 7.79468L105.258 8.17351V12.9376V14.4299C105.258 14.4414 105.258 14.4529 105.258 14.4644L105.27 15.0384Z" fill="white"/>
<path d="M87.027 19.6876L86.67 19.745C86.67 27.8726 86.1978 30.7999 85.8983 31.9249C85.8523 32.1201 86.0826 32.2578 86.2323 32.1201C87.338 31.0984 89.6529 28.6647 89.6644 20.2501V19.2399L87.3034 19.6417L87.027 19.6876Z" fill="white"/>
<path d="M86.6354 17.8165L89.6413 17.3458L89.6874 11.319L86.6354 11.7782V17.8165Z" fill="white"/>
<path d="M98.3481 5.16577L97.3346 5.32649V23.097L98.3481 22.9593V5.16577Z" fill="white"/>
<path d="M86.6124 10.0677L89.6644 9.6085V3.55872L86.6239 4.55745L86.6124 10.0677Z" fill="white"/>
<path d="M101.769 2.02039H101.734L98.7167 3.0306V19.4925C98.6476 26.2655 98.2215 28.9517 97.9566 29.9849C97.9105 30.18 98.1409 30.3178 98.2906 30.18C99.3732 29.1928 101.654 27.2986 101.769 19.4121V18.7807V17.1965V2.02039Z" fill="white"/>
<path d="M96.9316 5.01662V3.03064L93.9141 3.47835L93.4189 3.54722L90.4015 3.99493V5.9924V7.8521V10.5728V12.6047L90.3899 17.1851V19.217L90.3784 23.981V25.99L90.8506 25.9211C90.6894 29.0436 90.4245 30.5589 90.2287 31.2821C90.1826 31.4773 90.413 31.615 90.5627 31.4773C91.3113 30.7885 92.6242 29.1354 93.3959 25.5538L93.6262 25.5193L93.8681 25.4849C94.2827 26.9658 94.9852 28.9862 96.0793 30.5359C96.183 30.6852 96.4133 30.6048 96.4133 30.4326V24.8879L96.9661 24.7961L96.9316 5.01662ZM93.4304 12.1799L93.9257 12.1111V16.6915L93.4304 16.7603V12.1799ZM93.8911 23.4874L93.465 23.5448H93.4419V18.7808L93.9372 18.7119V23.4759L93.8911 23.4874ZM93.9141 5.48729V10.0792L93.4189 10.148V6.86485V5.55617L93.9141 5.48729Z" fill="white"/>
<path d="M64.2695 25.3586L56.2076 26.6099L53.1902 27.0691V31.087V33.0959V35.1049V37.1138L64.2695 35.4034V33.3944V26.4607V25.3586ZM56.2076 28.6189L61.2405 27.8383V29.8357L56.2076 30.6163V28.6189ZM56.2076 34.6342V32.6253L61.2405 31.8447V33.8421L56.2076 34.6342Z" fill="white"/>
<path d="M65.2714 24.4976V17.1966C66.0661 17.5983 66.7226 17.8624 67.1602 17.9657C67.356 18.0116 67.4597 17.7017 67.2869 17.5983C66.6535 17.2195 64.3731 14.8891 62.0813 12.444C61.3557 11.6634 60.7338 10.8713 60.2731 10.2284C60.2616 10.2169 60.2616 10.2054 60.2501 10.194C60.2155 10.148 60.181 10.1021 60.1464 10.0562C60.2155 9.92992 60.2501 9.84957 60.2616 9.83809C60.5841 9.08043 60.9641 8.01282 60.9641 8.01282L59.1905 8.21945L57.7509 8.39165C57.7509 8.39165 57.6242 8.79344 57.2096 9.83809C57.1981 9.86105 57.1635 9.9414 57.1059 10.0562C56.8295 10.6187 56.1155 12.0077 55.1941 13.5805C53.5242 16.4274 53.3169 16.7144 49.5854 21.1571C49.4587 21.3063 49.5508 21.5588 49.7466 21.5014C50.3225 21.3292 51.1978 20.8701 52.1767 20.1813V26.541L53.1902 26.3803L55.7815 25.9785L57.82 25.6686L64.3155 24.6584V24.6354L65.2714 24.4976ZM60.2616 19.6991L60.3076 19.6877H60.3307L60.7107 19.6303L61.6091 19.4925L61.7358 19.4695L62.2195 19.3892L60.2616 21.3637V19.6991ZM62.254 21.444V22.9823L60.4919 23.2578L62.254 21.444ZM58.822 12.4784C58.868 12.5243 58.9026 12.5588 58.9487 12.6047C59.7664 13.4312 60.6647 14.1889 61.563 14.8662L56.7604 15.6009C57.5551 14.5218 58.2576 13.4197 58.822 12.4784ZM55.413 17.2884V17.7935L62.4728 16.7144V15.5205C63.3136 16.0945 64.1198 16.5881 64.8453 16.9784L64.2695 17.0703L63.8088 17.1392L62.254 17.3802L62.0237 17.4147L61.9085 17.4376L60.7453 17.6213L60.4459 17.6672H60.4343L60.2731 17.6902L60.1003 17.7131L57.2211 18.1609H57.2096L55.5166 18.4249L55.1941 18.4708L54.077 18.643C54.5377 18.2297 54.9868 17.782 55.413 17.2884ZM55.6087 24.004L55.2057 24.0729V22.4428V20.4912L55.8967 20.3879L57.2211 20.1813L57.2326 21.8573L55.7124 20.7897V22.8216L57.0138 23.7859L55.6087 24.004Z" fill="white"/>
<path d="M73.2527 43.9098L76.4314 43.4276V42.5781L74.0935 42.934V38.1699L73.2412 38.3077V43.9098H73.2527Z" fill="white"/>
<path d="M88.4896 41.5793L90.9773 41.189L91.6683 41.0857V35.4836L88.4896 35.9773V41.5793ZM89.3419 40.6036V36.7005L90.8276 36.4709V40.374L89.3419 40.6036Z" fill="white"/>
<path d="M84.6775 42.1648L87.8562 41.6712V40.8217L85.5298 41.189V37.263L87.8562 36.9071V36.0576L84.6775 36.5512V42.1648Z" fill="white"/>
<path d="M80.8654 42.7387L84.0556 42.2566V41.4071V40.5921V39.754L83.2034 39.8803L82.4663 39.9951V40.8446L83.2034 40.7298V41.5334L81.7177 41.763V37.8484L83.8483 37.527V36.6775L81.7177 36.9989L80.9806 37.1137L80.8654 37.1367V42.7387Z" fill="white"/>
<path d="M77.0648 43.3242L80.2435 42.8421V41.9926L77.9056 42.3485V40.8217L80.2435 40.4658V39.6163L77.9056 39.9722V38.4339L80.2435 38.078V37.2285L77.0648 37.7221V43.3242Z" fill="white"/>
<path d="M97.7493 34.5079V40.11L98.6015 39.9837V37.6763L100.087 37.4467V39.7541L100.939 39.6164V34.0143L100.087 34.1406V36.6087L98.6015 36.8268V34.3702L97.7493 34.5079Z" fill="white"/>
<path d="M93.9372 35.0934V40.6955L97.1158 40.2018V39.3638L94.7779 39.7197V35.8051L97.1158 35.4492V34.5997L93.9372 35.0819V35.0934Z" fill="white"/>
<path d="M105.373 33.3254V38.939L108.552 38.4339V37.5844L106.226 37.9517V34.0372L108.552 33.6813V32.8318L105.373 33.3254Z" fill="white"/>
<path d="M119.988 34.3012V31.4543V31.0984L117.662 31.4543L116.81 31.5805V31.592V32.43V37.1826L117.662 37.0449V32.3038L119.148 32.0742V33.6813L118.296 33.8191V34.6456L119.182 36.8153L119.988 36.7005L119.136 34.5193L119.988 34.4045V34.3012Z" fill="white"/>
<path d="M101.561 33.9223V39.5244L104.752 39.0423V38.1813L102.414 38.5372V37.0104L104.752 36.6545V35.805L102.414 36.1609V34.6341L104.752 34.2782V33.4287L101.561 33.9223Z" fill="white"/>
<path d="M116.188 37.2744V36.4249L113.85 36.7923V35.254L116.188 34.8981V34.0487L113.85 34.416V32.8777L116.188 32.5219V31.6724L112.998 32.166V37.7681L116.188 37.2744Z" fill="white"/>
<path d="M109.186 38.3535L110.038 38.2157V32.6251L109.186 32.7514V38.3535Z" fill="white"/>
<path d="M112.364 37.8599L111.42 35.2311L112.364 32.2693L111.547 32.3956L110.533 35.3688L111.547 37.9862L112.364 37.8599Z" fill="white"/>
</svg>
